{
  "accessors": [
    {
      "bufferView": 1,
      "componentType": 5126,
      "count": 13664,
      "max": [
        0.6335999965667725,
        0.7394000291824341,
        1.0
      ],
      "min": [
        -0.6335999965667725,
        -0.7394000291824341,
        -1.011056661605835
      ],
      "type": "VEC3"
    },
    {
      "bufferView": 1,
      "byteOffset": 163968,
      "componentType": 5126,
      "count": 13664,
      "max": [
        0.9998842477798462,
        0.999752402305603,
        0.9999954104423523
      ],
      "min": [
        -0.9998842477798462,
        -0.9999105334281921,
        -0.9999993443489075
      ],
      "type": "VEC3"
    },
    {
      "bufferView": 0,
      "componentType": 5125,
      "count": 77820,
      "type": "SCALAR"
    }
  ],
  "asset": {
    "extras": {
      "author": "subliminalsouleater (https://sketchfab.com/subliminalsouleater)",
      "license": "CC-BY-4.0 (http://creativecommons.org/licenses/by/4.0/)",
      "source": "https://sketchfab.com/3d-models/female-head-baccf38700f44dbd9ec5a8ce0b491058",
      "title": "Female Head"
    },
    "generator": "Sketchfab-12.65.0",
    "version": "2.0"
  },
  "bufferViews": [
    {
      "buffer": 0,
      "byteLength": 311280,
      "name": "floatBufferViews",
      "target": 34963
    },
    {
      "buffer": 0,
      "byteLength": 327936,
      "byteOffset": 311280,
      "byteStride": 12,
      "name": "floatBufferViews",
      "target": 34962
    }
  ],
  "buffers": [
    {
      "byteLength": 639216,
      "uri": "scene.bin"
    }
  ],
  "materials": [
    {
      "doubleSided": true,
      "name": "material_0",
      "pbrMetallicRoughness": {
        "metallicFactor": 0.0,
        "roughnessFactor": 0.6
      }
    }
  ],
  "meshes": [
    {
      "name": "Object_0",
      "primitives": [
        {
          "attributes": {
            "NORMAL": 1,
            "POSITION": 0
          },
          "indices": 2,
          "material": 0,
          "mode": 4
        }
      ]
    }
  ],
  "nodes": [
    {
      "children": [
        1
      ],
      "matrix": [
        1.0,
        0.0,
        0.0,
        0.0,
        0.0,
        2.220446049250313e-16,
        -1.0,
        0.0,
        0.0,
        1.0,
        2.220446049250313e-16,
        0.0,
        0.0,
        0.0,
        0.0,
        1.0
      ],
      "name": "Sketchfab_model"
    },
    {
      "children": [
        2
      ],
      "name": "FemaleHead.OBJ.cleaner.materialmerger.gles"
    },
    {
      "mesh": 0,
      "name": "Object_2"
    }
  ],
  "scene": 0,
  "scenes": [
    {
      "name": "Sketchfab_Scene",
      "nodes": [
        0
      ]
    }
  ]
}
